<?xml version="1.0" encoding="utf-8"?>
<!-- Generator: Adobe Illustrator 23.0.3, SVG Export Plug-In . SVG Version: 6.00 Build 0)  -->
<svg version="1.1" id="Capa_1" xmlns="http://www.w3.org/2000/svg" xmlns:xlink="http://www.w3.org/1999/xlink" x="0px" y="0px"
	 viewBox="0 0 1200 1200" enable-background="new 0 0 1200 1200" xml:space="preserve">
<path fill="#1A1A1A" d="M1074.015,913.237c-27.953-29.934-55.907-59.868-83.86-89.801c-16.164-17.309-32.327-34.618-48.491-51.926
	c-3.285-3.518-6.585-8.357-10.481-11.224c-3.359-2.472-7.514-2.993-11.813-2.845c3.235-7.802,5.076-16.386,5.074-25.908
	c-0.004-33.377-13.804-65.862-29.893-94.47c-14.712-26.159-32.005-51.864-54.317-72.183c-24.613-22.415-53.053-35.282-86.025-39.21
	c-20.158-2.401-40.595-3.31-60.927-3.369c0-9.902,0-19.805,0-29.707c0.602-0.275,1.216-0.525,1.814-0.806
	c32.884-15.443,68.192-41.03,90.912-70.676c31.952,17.667,56.566-28.495,65.643-55.295c5.513-16.277,9.474-37.825-4.14-51.407
	c-3.949-3.94-8.803-6.156-13.914-6.961c4.062-9.916,6.229-21.068,8.205-30.369c3.322-15.638,6.451-32.494,6.048-48.85
	c9.167,0.25,17.738-4.12,23.353-13.618c6.174-10.443,6.127-24.144-0.753-33.467c6.183-10.871,8.062-23.013,2.341-35.316
	c-6.761-14.539-18.015-24.46-34.133-25.58c-1.619-10.536-7.92-20.106-18.081-24.962c-10.024-4.79-22.135-5.468-32.335-1.622
	c-5.891-22.619-34.471-33.889-54.377-21.701c-11.868-16.395-35.947-22.366-50.301-9.338c-6.419-7.728-15.245-11.24-27.277-9.667
	c-8.858,1.158-17.152,4.344-23.273,9.955c-6.849-7.404-17.127-11.961-27.071-12.781c-13.29-1.096-25.507,4.768-33.367,14.806
	c-8.9-6.076-19.991-8.25-30.861-4.256c-9.945,3.654-17.309,12.156-20.387,22.029c-10.354-2.805-22.426,0.637-30.575,8.585
	c-9.521,9.285-11.533,23.368-6.294,34.775c-14.928,13.877-6.631,43.976,12.529,49.47c0.108,2.405,0.612,4.789,1.48,7.076
	c-15.855,22.806-21.925,52.589-23.194,80.435c-9-3.816-18.959-4.231-26.797,3.27c-14.427,13.807-14.11,43.521-12.392,61.587
	c2.009,21.122,8.219,44.156,26.844,56.616c7.277,4.868,15.332,6.139,22.057,3.706c11.144,35.977,32.239,70.824,62.278,93.432
	c-0.142,0.581-0.234,1.199-0.261,1.861c-0.596,14.716-1.191,29.433-1.787,44.149c-26.078-0.022-48.268-1.882-69.333-20.916
	c-18.507-16.723-35.147-36.641-49.196-57.186c-27.695-40.5-46.225-86.277-60.164-133.113c-3.564-11.975-6.836-24.036-9.908-36.146
	c-1.207-4.757-5.145-13.376-4.46-18.192c0.701-4.931,5.233-10.147,7.521-14.534c9.5-18.223,18.088-39.588,16.269-60.52
	c-1.073-12.345-8.714-28.56-21.402-30.538c0.922-13.331,0.544-28.189-6.925-38.753c-4.749-6.716-12.314-9.758-20.407-8.453
	c-3.96,0.639-7.265,2.077-10.067,4.089c-2.631-7.089-7.002-13.577-14.669-15.544c-16.153-4.146-24.154,5.915-28.223,19.131
	c-1.769-2.686-3.717-5.182-5.927-7.368c-8.347-8.254-22.041-8.315-30.213,0.365c-7.708,8.187-9.177,20.37-8.628,32.174
	c-3.254-0.934-6.769-1.045-10.578-0.017c-26.196,7.073-8.31,56.502-4.092,71.996c7.921,29.095,25.495,53.945,45.589,76.046
	c0.156,0.172,1.563,1.799,2.931,3.313c0.179-2.278,1.096-4.306,0.455-0.145c-0.029,0.188-0.034,0.39-0.059,0.58
	c1.13,1.237,2.147,2.292,2.277,2.215c-1.418,0.853-2.132,0.464-2.462-0.384c-0.497,7.11,1.182,15.406,1.673,22.216
	c2.218,30.749,5.772,61.435,10.792,91.854c5.927,35.925,12.879,73.413,27.484,106.959c23.527,54.04,68.469,93.595,113.783,129.315
	c18.922,14.915,35.176,26.274,41.201,50.896c4.397,17.967,5.652,37.134,5.12,55.782c-5.071-0.057-10.142-0.113-15.213-0.17
	c-22.677-0.253-45.353-0.507-68.03-0.76c-8.736-0.098-21.368-2.594-29.73,0.862c-10.927,4.517-21.644,14.532-31.408,21.088
	c-23.585,15.835-47.169,31.671-70.754,47.506c-40.239,27.017-80.477,54.035-120.715,81.052c-7.388,4.961-3.871,14.59,4.241,15.659
	c13.715,1.807,27.453,3.469,41.202,5.06c10.302,31.811,20.603,63.622,30.905,95.433c1.158,3.576,4.283,6.122,8.103,6.169
	c20.141,0.247,40.282,0.493,60.423,0.74c0.009,0.492,0.024,0.987,0.117,1.509c6.897,38.963,13.794,77.927,20.692,116.89
	c0.634,3.583,4.667,6.169,8.103,6.169c16.981,0,33.962,0,50.943,0c4.543,0,8.403-3.85,8.403-8.403c0-38.362,0-76.723,0-115.085
	c38.222,0.468,76.444,0.936,114.666,1.404c121.212,1.484,242.425,2.969,363.637,4.453c0,36.409,0,72.818,0,109.228
	c0,4.542,3.85,8.403,8.403,8.403c16.981,0,33.962,0,50.943,0c3.399,0,7.469-2.587,8.103-6.169
	c6.514-36.799,13.028-73.598,19.542-110.397c22.031,0.27,44.063,0.54,66.094,0.809c3.73,0.046,7.075-2.65,8.103-6.169
	c9.221-31.574,18.441-63.148,27.662-94.722c14.112-1.863,28.206-3.869,42.274-6.071
	C1076.912,926.247,1077.905,917.402,1074.015,913.237z M919.348,772.251c-0.04-0.024-0.058-0.051-0.049-0.083
	C919.295,772.184,919.339,772.227,919.348,772.251z M496.929,137.644c5.795-0.281,10.811-7.063,7.256-12.596
	c-0.678-1.588-1.773-2.965-3.219-3.865c-3.427-4.856-3.743-11.338,0.135-16.367c3.466-4.495,15.082-10.314,19.61-4.034
	c1.601,2.22,3.745,3.315,5.944,3.586c4.901,1.328,10.558-1.051,10.112-7.228c0.005-0.075-0.006-0.152-0.003-0.228
	c-0.006-0.061,0.005-0.111-0.002-0.173c-0.031-0.271-0.04-0.538-0.06-0.807c-0.017-0.136-0.004-0.266-0.03-0.403
	c-0.866-16.414,19.013-28.454,30.692-13.335c1.065,1.379,2.356,2.27,3.725,2.824c3.437,2.166,7.934,2.063,10.332-2.159
	c1.111-1.105,1.856-2.458,2.047-3.96c3.995-7.038,10.196-12.005,19.044-12.121c8.362-0.11,19.2,5.108,21.468,13.577
	c0.811,7.961,13.857,10.445,16.5,1.215c2.328-8.13,10.247-11.05,18.015-12.001c9.333-1.143,12.634,2.872,15.966,10.069
	c0.715,7.596,13.57,9.882,16.679,0.971c6.68-19.146,28.534-4.818,32.037,6.889c2.227,7.445,11.171,7.655,15.358,2.007
	c5.154-6.951,18.062-7.533,25.03-3.29c7.373,4.49,9.71,12.591,8.681,20.718c-0.119,0.941-0.055,1.768,0.084,2.543
	c0.048,0.3,0.088,0.6,0.178,0.887c0.043,0.136,0.109,0.253,0.161,0.382c0.14,0.359,0.295,0.709,0.496,1.042
	c0.017,0.026,0.036,0.05,0.053,0.076c2.785,4.481,10.798,6.422,15.176,0.726c5.057-6.58,19.535-5.404,25.966-1.661
	c6.605,3.845,9.254,11.679,7.482,18.856c-2.335,9.458,10.549,13.99,15.033,7.123c0.103,0.007,0.19,0.036,0.294,0.039
	c18.24,0.633,26.073,21.093,18.896,35.624c-7.398,0.891-11.97,11.521-3.775,15.255c0.749,0.341,1.387,0.762,2.009,1.192
	c0.445,0.459,0.929,0.861,1.442,1.213c4.154,4.027,4.317,10.386,0.955,15.895c-3.352,5.493-7.487,6.422-12.279,4.654
	c-0.871-0.756-1.923-1.204-3.046-1.425c-0.192-0.106-0.382-0.205-0.575-0.318c-2.502-1.458-4.927-1.462-6.979-0.621
	c-2.274,0.582-4.174,2.255-4.95,5.182c-0.074,0.192-0.114,0.393-0.176,0.59c-0.003,0.014-0.009,0.025-0.012,0.039
	c0,0.002-0.001,0.004-0.002,0.006c-0.122,0.396-0.226,0.794-0.293,1.201c-1.635,6.892-5.671,12.566-13.005,14.311
	c-8.794,2.092-18.076-2.677-16.92-12.584c0.165-1.411,0.002-2.623-0.383-3.661c-0.466-2.303-1.982-4.463-4-5.585
	c-0.25-0.139-0.5-0.278-0.75-0.417c-2.529-1.406-5.975-1.659-8.482,0c-4.957,3.28-8.285,7.478-14.737,7.554
	c-3.274,0.039-6.759-0.915-9.4-2.923c-3.494-2.658-3.088-5.524-2.987-9.472c0.276-10.819-16.53-10.813-16.806,0
	c-0.032,1.245,0.013,2.449,0.096,3.632c-10.038,12.537-27.314,5.138-29.898-9.317c-1.9-10.629-18.099-6.125-16.206,4.468
	c0.058,0.325,0.141,0.631,0.206,0.951c-4.748,9.957-15.786,13.212-26.324,11.038c-9.382-1.936-11.103-11.024-12.557-19.271
	c-1.874-10.632-18.073-6.126-16.206,4.468c0.249,1.411,0.549,2.786,0.874,4.144c-4.428,2.746-9.346,4.011-14.612,2.074
	c-5.226-1.922-10.684-6.977-9.376-13.066c2.267-10.546-13.931-15.053-16.206-4.468c-0.064,0.3-0.097,0.591-0.152,0.888
	c-0.979,0.871-1.817,1.983-2.377,3.429c-5.37,13.865-35.061,16.808-36.739-1.062c-0.082-0.871-0.301-1.645-0.575-2.375
	c-0.011-0.077-0.002-0.146-0.015-0.223c-0.541-3.248-1.189-4.693-2.817-7.552c-2.759-4.846-9.297-5.33-13.198-1.701
	c-6.396,5.951-11.522,9.302-20.578,6.223c-5.277-1.795-11.66-5.905-10.006-11.392c2.27-1.793,3.205-4.485,3.056-7.132
	c0.006-0.668-0.084-1.314-0.283-1.929c-1.068-4.107-4.751-7.389-9.953-5.667C495.37,162.694,488.248,143.134,496.929,137.644z
	 M497.546,370.554c-2.091-8.676-13.494-7.251-16.206,0c0.866-2.315-0.912,2.52-3.2,2.455c-6.689-0.191-13.117-8.288-16.317-13.667
	c-6.736-11.324-8.885-25.639-9.41-38.586c-0.47-11.603-0.211-24.862,4.206-35.798c4.6-11.392,13.573-7.492,20.854-0.837
	c5.223,4.774,14.438,1.605,14.345-5.942c-0.283-22.855,2.51-45.718,10.938-67.094c1.978-5.017,4.314-9.914,6.991-14.602
	c1.002,0.67,2.027,1.302,3.097,1.842c12.295,6.203,23.271,5.617,33.421,0.004c8.013,24.154,41.045,26.95,58.951,10.932
	c9.022,12.083,28.003,16.737,42.403,9.055c4.451,6.168,10.886,10.491,20.086,11.818c13.232,1.909,27.314-1.356,36.226-10.822
	c11.195,11.259,29.824,12.67,43.541,3.175c3.113,3.444,7.319,6.112,12.661,7.842c5.766,1.867,12.188,2.058,18.055,0.489
	c1.815-0.485,3.407-1.16,4.899-1.937c4.201,11.009,16.083,18.281,28.494,18.161c7.193-0.07,13.836-2.412,19.306-6.347
	c-0.861,9.764-2.804,19.589-4.603,28.592c-2.243,11.219-4.913,35.424-14.763,42.994c-8.291,6.372-0.956,20.44,8.482,14.511
	c6.686-4.2,14.682-4.212,18.529,3.784c4.789,9.954-0.794,24.768-4.313,34.22c-5.47,14.694-23.495,56.799-44.241,38.876
	c-4.284-3.701-10.003-2.996-13.198,1.701c-20.155,29.636-55.237,54.583-86.973,70.363c-34.833,17.32-77.082,21.252-112.906,4.567
	C534.958,460.765,508.101,414.345,497.546,370.554z M579.488,499.506c31.328,11.761,65.662,10.251,96.989-0.277
	c0,10.498,0,20.997,0,31.495c0,1.323,0.361,2.578,0.943,3.715c-15.331,42.699-103.686,47.732-115.704,0.849
	c0.582-14.389,1.165-28.778,1.748-43.167C568.599,494.931,573.933,497.42,579.488,499.506z M546.813,544.52
	c19.665,58.062,129.113,51.667,146.954-5.47c7.513-0.063,15.2-0.091,22.954,0.053c-8.3,40.86-50.882,57.052-88.548,60.003
	c-38.819,3.042-90.979-10.435-99.646-54.609C534.592,544.678,540.701,544.6,546.813,544.52z M281.665,312.79
	c-0.098-1.479-0.132-3.042-0.147-4.646c20.583,0.801,43.87-6.391,59.551-19.918c1.364,5.448,2.794,10.883,4.288,16.307
	c-0.092,0.211-0.211,0.391-0.291,0.617c-2.408,6.755-18.447,11.265-24.517,13.42c-12.536,4.451-25.083,6.242-38.106,4.424
	C282.183,319.592,281.892,316.193,281.665,312.79z M333.429,126.793c2.671,1.907,3.301,7.922,3.735,10.76
	c1.246,8.16,0.826,16.665,0.082,24.924c-1.789,1.618-3.426,3.483-4.921,5.551c-2.699-0.877-5.429-1.611-8.18-2.24
	c-0.809-10.107-1.243-20.319-2.429-30.4c0.374-0.58,0.71-1.212,0.966-1.939C324.214,129.109,328.418,123.215,333.429,126.793z
	 M300.096,116.229c4.758,4.453,4.663,18.476,5.218,24.314c0.727,7.643,1.204,15.305,1.82,22.957
	c-5.986-0.281-11.974-0.045-17.882,0.76c-0.73-4.51-1.561-9.26-2.591-14.076C287.122,139.176,289.16,105.996,300.096,116.229z
	 M252.519,120.356c6.268-1.373,10.295,11.587,11.864,15.794c2.145,5.753,3.907,11.696,5.415,17.709
	c0.058,1.168,0.311,2.201,0.746,3.086c0.859,3.671,1.607,7.358,2.278,11.053c-5.712,1.82-11.253,4.138-16.516,7.004
	c-2.29-5.276-5.064-11.09-8.402-16.383c0.035-0.625,0.01-1.275-0.092-1.952C246.824,150.085,242.309,122.592,252.519,120.356z
	 M231.021,209.679c-1.248-4.585-14.828-48.636-7.095-51.276c6.043-2.063,14.557,17.049,18.309,26.111
	c-2.597,2.13-5.122,4.36-7.478,6.799c-7.518,7.782,4.352,19.68,11.884,11.884c11.652-12.06,23.389-19.078,40.337-21.395
	c12.467-1.704,25.171-1.526,37.289,1.535c-3.149,7.818-5.516,15.894-7.781,22.064c-3.733,10.168,12.503,14.554,16.206,4.468
	c2.153-5.866,4.818-16.799,8.581-24.176c1.254-1.049,2.17-2.545,2.628-4.245c0.324-0.409,0.653-0.794,0.991-1.137
	c16.974-17.208,13.508,22.983,12.154,28.412c-3.036,12.173-8.106,23.593-14.129,34.565c-4.861,8.856-9.184,13.165-6.966,23.3
	c0.177,0.807,0.377,1.613,0.557,2.42c-0.173,0.177-0.356,0.31-0.524,0.51c-12.179,14.468-36.254,23.551-55.478,21.941
	c-0.663-3.048-1.77-5.871-3.633-8.232C258.31,259.701,239.156,239.561,231.021,209.679z M456.949,657.39
	c-12.347-12.69-27.586-22.843-41.339-33.913c-20.417-16.434-40.163-33.819-57.54-53.493c-19.232-21.775-35.512-46.659-44.826-74.324
	c-11.249-33.41-17.886-68.65-23.096-103.449c-2.598-17.357-4.642-34.801-6.272-52.282c15.858,1.456,31.052-1.124,46.289-7.078
	c6.714-2.623,14.322-5.585,20.498-10.009c6.839,22.44,14.786,44.553,23.99,65.966c16.915,39.35,39.179,75.917,67.974,107.717
	c13.081,14.446,26.815,29.694,44.356,38.807c8.285,4.304,16.905,6.633,25.71,7.888c-0.626,1.452-0.876,3.139-0.527,5.032
	c18.125,98.483,204.815,88.377,221.167-6.688c0.109-0.632,0.145-1.238,0.132-1.825c21.261,1.323,42.334,4.826,60.773,13.677
	c46.855,22.489,79.543,73.075,99.497,119.429c9.796,22.756,20.11,53.901,10.838,78.372c-7.763,20.489-30.661,32.202-48.784,41.886
	c-25.338,13.539-52.151,23.934-78.819,34.494c-8.483,3.359-17.033,6.4-25.288,9.902c-7.794-21.689-21.216-36.755-39.385-50.263
	c2.394-1.612,4.795-3.209,7.219-4.762c39.9-25.567,80.51-50.062,121.137-74.453c9.263-5.561,0.823-20.098-8.482-14.511
	c-5.55,3.332-11.092,6.678-16.638,10.018c-10.94-20.401-21.88-40.802-32.819-61.202c-5.113-9.535-19.627-1.057-14.511,8.482
	c10.976,20.469,21.952,40.937,32.928,61.405c-23.724,14.35-47.358,28.851-70.834,43.598c-0.142-0.008-0.264-0.044-0.41-0.045
	c-83.149-0.929-166.297-1.858-249.446-2.787C481.686,720.95,479.454,680.521,456.949,657.39z M664.068,884.968
	c9.82-4.129,5.505-20.399-4.468-16.206c-12.096,5.086-28.972,13.316-32.625,27.163c-0.338,1.282-0.562,2.509-0.683,3.681
	c-3.956,2.873-9.127,5.373-13.833,3.246c-7.301-3.299-2.167-9.656,1.749-13.492c8.536-8.363,18.835-14.56,29.34-20.111
	c9.566-5.055,1.083-19.566-8.482-14.511c-13.874,7.332-41.145,21.821-43.426,40.538c-4.656,1.151-10.555,0.357-9.462-5.753
	c0.969-5.417,8.31-11.361,12.02-14.95c6.809-6.588,14.212-12.68,21.964-18.134c8.778-6.177,0.39-20.754-8.482-14.512
	c-13.898,9.779-29.523,21.434-38.401,36.189c-0.499,0.829-0.938,1.662-1.348,2.496c-10.525-1.549,4.777-19.127,10.011-23.293
	c4.918-3.915,6.938-5.349,8.81-11.231c0.662-2.079-0.874-2.995,0.225-5.144c1.911-3.737,8.313-6.002,11.751-7.361
	c9.194-3.635,19.346-5.235,28.904-7.656c16.286-4.125,32.546-9.013,47.774-16.161c19.048,13.235,32.568,27.394,39.337,50.374
	c0.149,0.505,0.353,0.945,0.56,1.381c-16.493,16.127-34.213,32.621-56.549,39.993c-9.412,3.107-21.325,1.557-9.422-7.956
	c3.024-2.417,6.483-4.363,9.897-6.169C660.454,886.742,666.294,884.031,664.068,884.968z M728.967,849.654
	c-7.485-20.879-20.186-35.62-37.304-48.738c1.948-1.21,3.894-2.425,5.815-3.687c18.504,12.75,31.859,26.296,38.996,47.687
	C733.909,846.38,731.4,847.946,728.967,849.654z M311.357,799.298c14.526-9.753,46.955-31.579,46.515-31.277
	c2.801,0,9.199,0.499,12.957,0.541c20.283,0.227,40.567,0.453,60.85,0.68c59.739,0.668,119.479,1.335,179.218,2.002
	c31.12,0.348,62.24,0.695,93.36,1.043c-22.35,14.221-44.067,27.34-70.647,34.688c-19.01,5.255-63.77,9.156-63.889,35.968
	c-9.011,8.775-20.739,14.628-22.385,28.94c-1.428,12.419,7.175,23.702,18.888,25.403c0.937,2.839,2.564,5.601,4.957,8.232
	c7.071,7.775,16.269,8.351,25.256,5.716c3.56,4.265,8.667,7.294,14.09,8.604c8.189,1.978,15.91-0.68,22.726-4.909
	c7.112,4.988,18.219,6.037,26.757,3.783c24.282-6.409,46.159-24.251,63.561-41.588c10.77-10.729,19.617-17.85,33.834-23.656
	c17.664-7.214,35.481-14.043,53.14-21.27c31.633-12.946,74.948-28.453,97.976-56.806c3.515,0.057,9.798,0.534,12.992-0.276
	c2.839,4.256,8.448,8.471,11.653,11.902c16.29,17.444,32.58,34.888,48.87,52.332c23.007,24.637,46.014,49.274,69.021,73.911
	c-156.433,23.139-315.921,25.634-473.717,21.224c-124.995-3.493-249.916-12.004-374.272-25.085
	c-6.31-0.664-12.62-1.335-18.929-2.018c-3.901-0.367-5.162-0.597-8.399-0.928c-6.832-0.755-13.66-1.534-20.486-2.344
	c26.942-18.09,53.884-36.18,80.827-54.269C261.172,832.993,286.265,816.146,311.357,799.298z M344.074,1133.194
	c-11.843,0-23.686,0-35.53,0c-6.346-35.852-12.693-71.704-19.039-107.556c18.19,0.223,36.379,0.446,54.569,0.668
	C344.074,1061.936,344.074,1097.565,344.074,1133.194z M891.519,1133.194c-11.843,0-23.686,0-35.53,0c0-33.54,0-67.079,0-100.619
	c13.183,0.161,26.366,0.323,39.549,0.484c4.559,0.056,9.118,0.112,13.677,0.167C903.317,1066.549,897.418,1099.872,891.519,1133.194
	z M985.99,1017.361c-22.132-0.271-44.264-0.542-66.396-0.813c-0.885-0.144-1.765-0.155-2.621-0.032
	c-62.684-0.767-125.368-1.535-188.052-2.303c-139.997-1.714-279.995-3.428-419.992-5.143c-30.201-0.37-60.401-0.739-90.601-1.109
	c-8.938-27.601-17.876-55.201-26.814-82.802c49.318,5.4,98.789,9.645,148.211,13.463c152.078,11.748,304.919,17.48,457.422,12.614
	c71.061-2.267,142.117-6.956,212.701-15.573C1001.896,962.895,993.943,990.128,985.99,1017.361z M263.732,293.939
	c-0.079,0.601-0.142,1.21-0.185,1.831c-0.237-0.609-0.276-1.444-0.211-2.265C263.47,293.654,263.6,293.794,263.732,293.939z
	 M570.611,294.061c1.49,4.444,0.424,10.311-0.387,14.413c-1.024,5.179-3.242,10.597-9.541,10.296
	c-9.763-0.468-8.117-12.658-6.649-19.122c1.223-5.384,4.808-13.925,11.806-10.907C568.378,289.835,569.838,291.757,570.611,294.061z
	 M723.247,321.088c1.885,4.292,1.353,10.231,0.915,14.389c-0.553,5.25-2.272,10.847-8.573,11.115
	c-9.765,0.415-9.226-11.874-8.348-18.444c0.732-5.472,3.531-14.302,10.773-11.928C720.643,317.081,722.27,318.863,723.247,321.088z
	 M711.966,267.318c0.416-0.253,0.91-0.446,1.515-0.534c0.565-0.166,1.088-0.2,1.577-0.159c14.119-1.329,32.984,6.323,41.391,17.813
	c5.513,7.533,4.866,23.403-8.034,20.824c-3.334-0.666-6.128-2.894-8.9-4.682c-4.085-2.634-8.399-4.315-13.143-5.507
	c-6.412-1.611-13.68-1.62-19.219-5.695C697.171,282.034,702.384,271.038,711.966,267.318z M550.822,262.622
	c-4.762,0.242-9.553,1.974-14.348,1.695c-5.006-0.291-9.811-2.599-11.205-7.705c-4.302-15.753,23.798-18.277,32.653-20.066
	c12.045-2.372,28.222-2.906,32.499,11.583c4.821,16.329-9.56,18.89-21.823,16.515C562.656,263.493,556.909,262.312,550.822,262.622z
	 M620.387,444.022c4.403-8.119,3.663-18.402-2.646-25.333c-2.894-3.179-6.565-5.401-10.418-7.212
	c-7.381-3.469-11.372-5.17-16.553-12.247c-5.795-7.62-12.709-15.582-23.331-13.725c-8.965,1.567-15.898,9.501-18.063,18.029
	c-4.801,18.91,7.2,39.139,22.72,49.138C587.642,462.685,610.687,461.909,620.387,444.022z M591.435,442.496
	c-8.925-1.033-17.075-8.024-21.609-15.483c-2.318-3.812-3.99-8.132-4.412-12.614c-0.172-1.829-0.505-4.666,0.168-6.398
	c2.155-5.551,7.445-4.539,10.677-0.289c5.716,7.806,10.652,13.154,19.594,17.03c5.275,2.286,14.168,5.232,8.779,12.823
	C601.797,441.556,595.962,443.019,591.435,442.496z M474.639,305.52c5.971,12.768,7.654,25.91,5.006,39.763
	c-2.032,10.628-18.226,6.101-16.206-4.468c1.738-9.091,0.614-18.42-3.311-26.813C455.569,304.254,470.062,295.731,474.639,305.52z
	 M801.688,378.895c-0.062-12.017,4.921-23.579,14.017-31.5c8.127-7.077,20.055,4.768,11.884,11.884
	c-5.941,5.173-9.135,11.699-9.094,19.616C818.549,389.729,801.743,389.706,801.688,378.895z M622.891,375.915
	c-1.465-7.943,10.685-11.317,12.154-3.351c1.164,6.309,11.404,9.833,16.577,5.711c5.327-4.244,1.088-11.789-3.154-14.828
	c-6.544-4.688-0.243-15.615,6.362-10.884c11.447,8.201,17.215,25.472,4.468,35.622C647.651,397.462,625.691,391.09,622.891,375.915z
	"/>
</svg>
